<svg width="29" height="26" viewBox="0 0 29 26" fill="none" xmlns="http://www.w3.org/2000/svg">
<g id="hanoiIcon">
<path id="Vector" fill-rule="evenodd" clip-rule="evenodd" d="M24.827 7.17504C27.0774 7.17504 28.9017 5.56885 28.9017 3.58752C28.9017 1.60619 27.0774 0 24.827 0C22.5766 0 20.7523 1.60619 20.7523 3.58752C20.7523 5.56885 22.5766 7.17504 24.827 7.17504Z" fill="#6D758F"/>
<path id="Vector_2" fill-rule="evenodd" clip-rule="evenodd" d="M24.827 16.5875C27.0774 16.5875 28.9017 14.9813 28.9017 13C28.9017 11.0186 27.0774 9.41245 24.827 9.41245C22.5766 9.41245 20.7523 11.0186 20.7523 13C20.7523 14.9813 22.5766 16.5875 24.827 16.5875Z" fill="#6D758F"/>
<path id="Vector_3" fill-rule="evenodd" clip-rule="evenodd" d="M24.827 26C27.0774 26 28.9017 24.3938 28.9017 22.4125C28.9017 20.4311 27.0774 18.8249 24.827 18.8249C22.5766 18.8249 20.7523 20.4311 20.7523 22.4125C20.7523 24.3938 22.5766 26 24.827 26Z" fill="#6D758F"/>
<path id="Vector_4" fill-rule="evenodd" clip-rule="evenodd" d="M14.451 16.5875C16.7014 16.5875 18.5257 14.9813 18.5257 13C18.5257 11.0186 16.7014 9.41245 14.451 9.41245C12.2007 9.41245 10.3763 11.0186 10.3763 13C10.3763 14.9813 12.2007 16.5875 14.451 16.5875Z" fill="#6D758F"/>
<path id="Vector_5" fill-rule="evenodd" clip-rule="evenodd" d="M14.451 25.9999C16.7014 25.9999 18.5257 24.3937 18.5257 22.4124C18.5257 20.4311 16.7014 18.8248 14.451 18.8248C12.2007 18.8248 10.3763 20.4311 10.3763 22.4124C10.3763 24.3937 12.2007 25.9999 14.451 25.9999Z" fill="#6D758F"/>
<path id="Vector_6" fill-rule="evenodd" clip-rule="evenodd" d="M4.07495 25.9999C6.32534 25.9999 8.14964 24.3938 8.14964 22.4125C8.14964 20.4311 6.32534 18.8249 4.07495 18.8249C1.82455 18.8249 0.000244141 20.4311 0.000244141 22.4125C0.000244141 24.3938 1.82455 25.9999 4.07495 25.9999Z" fill="#6D758F"/>
</g>
</svg>
