<svg width="57" height="57" viewBox="0 0 57 57" fill="none" xmlns="http://www.w3.org/2000/svg">
<g id="Avatar">
<path id="Vector" d="M28.5 54.15C42.6661 54.15 54.15 42.6661 54.15 28.5C54.15 14.3339 42.6661 2.85001 28.5 2.85001C14.3339 2.85001 2.84998 14.3339 2.84998 28.5C2.84998 42.6661 14.3339 54.15 28.5 54.15Z" fill="#6D758F"/>
<path id="Vector_2" d="M28.4994 30.4491C33.1173 30.4491 36.8608 26.7056 36.8608 22.0877C36.8608 17.4699 33.1173 13.7263 28.4994 13.7263C23.8816 13.7263 20.1381 17.4699 20.1381 22.0877C20.1381 26.7056 23.8816 30.4491 28.4994 30.4491Z" fill="#C7C7CC"/>
<path id="Vector_3" d="M43.9575 42.9054C43.2574 42.0573 42.4919 41.2655 41.6681 40.537C38.1623 37.0622 33.4461 35.0815 28.5105 35.0109C23.575 35.0815 18.8588 37.0622 15.353 40.537C14.5635 41.2863 13.8332 42.0958 13.1689 42.958C13.0189 43.1663 12.9034 43.3973 12.8268 43.6422C13.7621 44.6915 14.7928 45.6518 15.9056 46.5105C19.5638 49.2811 24.0269 50.7804 28.6158 50.7804C33.2047 50.7804 37.6679 49.2811 41.326 46.5105C42.4023 45.6468 43.3976 44.6867 44.2996 43.6422C44.2283 43.3789 44.1126 43.1297 43.9575 42.9054Z" fill="#C7C7CC"/>
</g>
</svg>
